<?xml version="1.0" encoding="UTF-8"?><svg id="_圖層_1" xmlns="http://www.w3.org/2000/svg" viewBox="0 0 229.08 98.17"><defs><style>.cls-1{fill:#a77e7b;}.cls-2{fill:#fff;}.cls-3{fill:#e4b5ae;}</style></defs><path class="cls-3" d="M27.71,41.12h-10.45c0,11.63,9.46,21.1,21.1,21.1v-10.45c-5.87,0-10.64-4.77-10.64-10.64"/><path class="cls-1" d="M59.45,41.12h-10.45c0,5.87-4.77,10.64-10.64,10.64v10.45c11.64,0,21.1-9.47,21.1-21.1"/><path class="cls-1" d="M38.38,5.36V0c-3.22,3.22-6.71,6.72-8.49,10.37-.76,1.38-1.19,2.95-1.2,4.63-.01,5.34,4.3,9.67,9.64,9.69,5.34.01,9.67-4.3,9.69-9.64.01-5.34-4.3-9.67-9.64-9.69"/><rect class="cls-1" y="30.66" width="38.35" height="10.45"/><rect class="cls-3" x="38.35" y="30.66" width="38.35" height="10.45"/><path class="cls-1" d="M38.35,69.44v10.08c-8.98,11.16-22.79,18.4-38.35,18.65v-10.45c13.65-.29,25.53-7.55,32.11-18.27h6.24Z"/><path class="cls-3" d="M38.35,69.44v10.08c8.98,11.16,22.79,18.4,38.35,18.65v-10.45c-13.65-.29-25.53-7.55-32.11-18.27h-6.24Z"/><polygon class="cls-2" points="103.36 32.57 99.09 32.57 99.09 30.88 109.45 30.88 109.45 32.57 105.17 32.57 105.17 44.13 103.36 44.13 103.36 32.57"/><path class="cls-2" d="M119.66,39.28l-2.48-6.08h-.04l-2.51,6.08h5.03ZM116.43,30.89h1.63l5.69,13.24h-2.1l-1.33-3.27h-6.33l-1.31,3.27h-2.1l5.86-13.24Z"/><path class="cls-2" d="M134.2,42.78c.76,0,1.45-.14,2.07-.42.61-.28,1.14-.66,1.57-1.13.44-.47.78-1.03,1.02-1.67.24-.64.36-1.33.36-2.05s-.12-1.4-.36-2.04c-.24-.64-.58-1.2-1.02-1.67-.44-.47-.96-.85-1.57-1.13-.61-.28-1.3-.42-2.07-.42s-1.45.14-2.06.42c-.61.28-1.14.66-1.58,1.13-.44.47-.78,1.03-1.01,1.67-.24.64-.36,1.33-.36,2.04s.12,1.41.36,2.05c.24.64.57,1.2,1.01,1.67.44.48.96.85,1.58,1.13.61.28,1.3.42,2.06.42M134.2,44.47c-1.01,0-1.94-.18-2.79-.54-.85-.35-1.58-.84-2.19-1.47-.61-.62-1.08-1.36-1.43-2.21-.34-.85-.52-1.76-.52-2.75s.17-1.9.52-2.75c.34-.85.82-1.58,1.43-2.21.6-.63,1.33-1.12,2.19-1.47.85-.36,1.78-.54,2.79-.54s1.95.18,2.8.54c.85.35,1.58.84,2.19,1.47.61.62,1.08,1.36,1.43,2.21s.51,1.76.51,2.75-.17,1.9-.51,2.75c-.34.85-.82,1.58-1.43,2.21-.61.62-1.34,1.11-2.19,1.47-.85.36-1.79.54-2.8.54"/><polygon class="cls-2" points="149.48 38.48 144.45 30.89 146.76 30.89 150.38 36.7 154.12 30.89 156.32 30.89 151.29 38.48 151.29 44.13 149.48 44.13 149.48 38.48"/><path class="cls-2" d="M162.02,30.89v8.12c0,.41.06.84.17,1.28.11.45.3.85.56,1.23.26.37.61.68,1.03.92.42.24.95.36,1.58.36s1.15-.12,1.58-.36c.42-.24.77-.54,1.03-.92.26-.37.45-.78.56-1.23.11-.44.17-.87.17-1.28v-8.12h1.8v8.4c0,.77-.13,1.48-.4,2.1-.26.63-.63,1.18-1.09,1.64-.46.46-1.01.82-1.63,1.07-.63.25-1.3.37-2.03.37s-1.4-.13-2.03-.37c-.62-.25-1.17-.6-1.63-1.07-.46-.46-.83-1.01-1.09-1.64-.26-.63-.4-1.33-.4-2.1v-8.4h1.8Z"/><path class="cls-2" d="M183.7,39.28l-2.48-6.08h-.04l-2.51,6.08h5.03ZM180.47,30.89h1.63l5.69,13.24h-2.1l-1.33-3.27h-6.33l-1.31,3.27h-2.1l5.86-13.24Z"/><polygon class="cls-2" points="192.15 30.89 194.51 30.89 201.83 41.77 201.87 41.77 201.87 30.89 203.67 30.89 203.67 44.13 201.38 44.13 193.99 33.24 193.95 33.24 193.95 44.13 192.15 44.13 192.15 30.89"/><path class="cls-2" d="M100.91,57.57h1.8v11.06c0,.27.22.5.5.5h5.6v1.68h-6.41c-.82,0-1.49-.66-1.49-1.48v-11.76Z"/><rect class="cls-2" x="113.28" y="57.57" width="1.8" height="13.24"/><polygon class="cls-2" points="123.9 59.25 119.62 59.25 119.62 57.57 129.98 57.57 129.98 59.25 125.7 59.25 125.7 70.81 123.9 70.81 123.9 59.25"/><path class="cls-2" d="M170.11,65.96l-2.48-6.08h-.04l-2.51,6.08h5.03ZM166.88,57.57h1.63l5.69,13.24h-2.1l-1.33-3.27h-6.33l-1.31,3.27h-2.1l5.86-13.24Z"/><polygon class="cls-2" points="179.61 59.25 175.33 59.25 175.33 57.57 185.69 57.57 185.69 59.25 181.41 59.25 181.41 70.81 179.61 70.81 179.61 59.25"/><path class="cls-2" d="M191.79,57.57v8.12c0,.41.06.84.17,1.28.11.45.3.85.56,1.23.26.37.61.68,1.03.92s.95.36,1.58.36,1.15-.12,1.58-.36.77-.54,1.03-.92c.26-.37.45-.78.56-1.23.11-.44.17-.87.17-1.28v-8.12h1.8v8.4c0,.77-.13,1.48-.4,2.1-.26.63-.63,1.18-1.09,1.64-.46.46-1.01.82-1.63,1.07-.63.25-1.3.37-2.03.37s-1.4-.13-2.03-.37c-.62-.25-1.17-.6-1.63-1.07-.46-.46-.83-1.01-1.09-1.64-.26-.63-.4-1.33-.4-2.1v-8.4h1.8Z"/><path class="cls-2" d="M136.82,69.12c-.27,0-.5-.22-.5-.49v-3.75h6.31v-1.68h-6.31v-3.45c0-.27.22-.49.5-.49h6.28v-1.68h-7.09c-.82,0-1.49.66-1.49,1.48v10.27c0,.82.67,1.48,1.49,1.48h7.43v-1.68h-6.62Z"/><path class="cls-2" d="M222.47,69.12c-.27,0-.5-.22-.5-.49v-3.75h6.31v-1.68h-6.31v-3.45c0-.27.22-.49.5-.49h6.28v-1.68h-7.09c-.82,0-1.49.66-1.49,1.48v10.27c0,.82.66,1.48,1.49,1.48h7.43v-1.68h-6.62Z"/><path class="cls-2" d="M152.78,63.4h-2.34v-4.01c0-.14.1-.24.24-.24h2.1c.35,0,.7.04,1.05.07.35.07.66.18.91.32.28.14.49.38.66.66.14.28.24.63.24,1.08s-.1.8-.24,1.08c-.18.28-.38.52-.66.66-.24.14-.56.24-.91.31-.35.04-.7.07-1.05.07M154.28,64.76c.49-.04.94-.17,1.36-.38.42-.24.74-.49,1.01-.8.28-.31.53-.7.67-1.08.14-.38.21-.8.21-1.22s-.03-.84-.17-1.29c-.11-.42-.35-.84-.66-1.19-.32-.35-.74-.66-1.3-.87-.56-.24-1.26-.35-2.1-.35h-3.46c-.7.14-1.22.73-1.22,1.47v11.75h1.82v-5.82h1.99l3.39,5.82h2.24l-3.78-6.03Z"/><path class="cls-2" d="M210.24,63.4h-2.34v-4.01c0-.14.1-.24.24-.24h2.1c.35,0,.7.04,1.05.07.35.07.66.18.91.32.28.14.49.38.66.66.14.28.24.63.24,1.08s-.1.8-.24,1.08c-.18.28-.38.52-.66.66-.24.14-.56.24-.91.31-.35.04-.7.07-1.05.07M211.74,64.76c.49-.04.94-.17,1.36-.38.42-.24.74-.49,1.01-.8.28-.31.53-.7.67-1.08.14-.38.21-.8.21-1.22s-.03-.84-.17-1.29c-.11-.42-.35-.84-.66-1.19-.32-.35-.74-.66-1.3-.87-.56-.24-1.26-.35-2.1-.35h-3.46c-.7.14-1.22.73-1.22,1.47v11.75h1.82v-5.82h1.99l3.39,5.82h2.24l-3.78-6.03Z"/><polygon class="cls-2" points="100.91 84.59 103.59 84.59 107.82 94.61 107.89 94.61 112.08 84.59 114.76 84.59 114.76 97.83 112.96 97.83 112.96 86.94 112.92 86.94 108.43 97.83 107.23 97.83 102.75 86.94 102.71 86.94 102.71 97.83 100.91 97.83 100.91 84.59"/><path class="cls-2" d="M122.68,84.59v8.12c0,.41.06.84.17,1.28.11.45.3.85.56,1.23.26.37.61.68,1.03.92.42.24.95.36,1.58.36s1.15-.12,1.58-.36c.42-.24.77-.54,1.03-.92.26-.37.45-.78.56-1.23.11-.44.17-.87.17-1.28v-8.12h1.8v8.4c0,.77-.13,1.48-.4,2.1-.26.63-.63,1.18-1.09,1.64-.46.46-1.01.82-1.63,1.07-.63.25-1.3.37-2.03.37s-1.4-.13-2.03-.37c-.63-.25-1.17-.6-1.63-1.07-.46-.46-.83-1.01-1.09-1.64-.26-.63-.4-1.33-.4-2.1v-8.4h1.8Z"/><path class="cls-2" d="M137.81,95.06c.33.48.74.84,1.25,1.07.51.23,1.03.35,1.57.35.3,0,.61-.05.92-.14.31-.09.6-.23.86-.42.25-.19.47-.42.63-.69.16-.27.24-.59.24-.96,0-.51-.16-.9-.49-1.17-.33-.27-.73-.49-1.21-.67-.48-.18-1.01-.36-1.58-.52s-1.1-.4-1.58-.7c-.48-.3-.89-.7-1.21-1.21-.33-.51-.49-1.19-.49-2.05,0-.38.08-.8.25-1.23.17-.44.43-.84.8-1.2.36-.36.83-.66,1.4-.91.57-.24,1.26-.37,2.06-.37.72,0,1.42.1,2.08.3.66.2,1.25.6,1.75,1.22l-1.47,1.33c-.22-.35-.54-.63-.96-.84-.41-.21-.88-.32-1.41-.32s-.92.07-1.25.2c-.33.13-.6.3-.8.51-.2.2-.34.43-.42.66-.08.24-.12.46-.12.65,0,.56.16.99.48,1.29.33.3.73.54,1.21.73.48.19,1.01.36,1.58.5.57.15,1.1.36,1.58.63.48.27.88.63,1.21,1.09.32.45.49,1.08.49,1.88,0,.64-.12,1.21-.37,1.72-.24.51-.57.94-.98,1.29s-.9.62-1.46.8c-.56.19-1.16.28-1.8.28-.85,0-1.66-.15-2.42-.45-.76-.3-1.37-.76-1.82-1.38l1.48-1.27Z"/><path class="cls-2" d="M167.03,84.59v8.12c0,.41.06.84.17,1.28.11.45.3.85.56,1.23.26.37.61.68,1.03.92.42.24.95.36,1.58.36s1.15-.12,1.58-.36c.42-.24.77-.54,1.03-.92.26-.37.45-.78.56-1.23.11-.44.17-.87.17-1.28v-8.12h1.8v8.4c0,.77-.13,1.48-.4,2.1-.26.63-.63,1.18-1.09,1.64-.46.46-1.01.82-1.63,1.07-.63.25-1.3.37-2.03.37s-1.4-.13-2.03-.37c-.62-.25-1.17-.6-1.63-1.07-.46-.46-.83-1.01-1.09-1.64-.26-.63-.4-1.33-.4-2.1v-8.4h1.8Z"/><polygon class="cls-2" points="181.64 84.59 184.32 84.59 188.54 94.61 188.62 94.61 192.8 84.59 195.49 84.59 195.49 97.83 193.69 97.83 193.69 86.94 193.65 86.94 189.16 97.83 187.96 97.83 183.47 86.94 183.44 86.94 183.44 97.83 181.64 97.83 181.64 84.59"/><path class="cls-2" d="M153.23,96.14c-.27,0-.5-.22-.5-.49v-3.75h6.3v-1.68h-6.3v-3.45c0-.27.22-.49.5-.49h6.28v-1.68h-7.09c-.82,0-1.49.66-1.49,1.48v10.28c0,.82.67,1.48,1.49,1.48h7.43v-1.68h-6.62Z"/><path class="cls-2" d="M101.4,84.83c0,.14-.11.25-.25.25s-.25-.11-.25-.25.11-.25.25-.25.25.11.25.25"/><path class="cls-2" d="M103.67,84.83c0,.14-.11.25-.25.25s-.25-.11-.25-.25.11-.25.25-.25.25.11.25.25"/></svg>