<?xml version="1.0" encoding="UTF-8"?><svg id="_圖層_1" xmlns="http://www.w3.org/2000/svg" viewBox="0 0 109.59 46.96"><defs><style>.cls-1{fill:#a77e7b;}.cls-2{fill:#e4b5ae;}.cls-3{fill:#717071;}</style></defs><path class="cls-2" d="M13.26,19.67h-5c0,5.57,4.53,10.09,10.09,10.09v-5c-2.81,0-5.09-2.28-5.09-5.09"/><path class="cls-1" d="M28.44,19.67h-5c0,2.81-2.28,5.09-5.09,5.09v5c5.57,0,10.09-4.53,10.09-10.09"/><path class="cls-1" d="M18.36,2.57V0c-1.54,1.54-3.21,3.21-4.06,4.96-.36.66-.57,1.41-.57,2.22,0,2.55,2.06,4.63,4.61,4.63,2.55,0,4.63-2.06,4.63-4.61,0-2.55-2.06-4.63-4.61-4.63"/><rect class="cls-1" y="14.67" width="18.35" height="5"/><rect class="cls-2" x="18.35" y="14.67" width="18.35" height="5"/><path class="cls-1" d="M18.35,33.22v4.82c-4.3,5.34-10.9,8.8-18.35,8.92v-5c6.53-.14,12.21-3.61,15.36-8.74h2.99Z"/><path class="cls-2" d="M18.35,33.22v4.82c4.3,5.34,10.9,8.8,18.35,8.92v-5c-6.53-.14-12.21-3.61-15.36-8.74h-2.99Z"/><polygon class="cls-3" points="49.45 15.58 47.4 15.58 47.4 14.77 52.36 14.77 52.36 15.58 50.31 15.58 50.31 21.11 49.45 21.11 49.45 15.58"/><path class="cls-3" d="M57.24,18.79l-1.18-2.91h-.02l-1.2,2.91h2.41ZM55.7,14.78h.78l2.72,6.33h-1.01l-.64-1.57h-3.03l-.63,1.57h-1.01l2.8-6.33Z"/><path class="cls-3" d="M64.2,20.47c.37,0,.7-.07.99-.2.29-.14.54-.31.75-.54.21-.23.37-.49.49-.8.11-.31.17-.63.17-.98s-.06-.67-.17-.98c-.11-.31-.28-.57-.49-.8-.21-.23-.46-.41-.75-.54-.29-.13-.62-.2-.99-.2s-.69.07-.99.2c-.29.14-.54.32-.75.54-.21.23-.37.49-.48.8-.11.31-.17.63-.17.98s.06.67.17.98c.11.31.27.57.48.8.21.23.46.41.75.54.29.13.62.2.99.2M64.2,21.27c-.48,0-.93-.08-1.34-.26-.41-.17-.76-.4-1.05-.7-.29-.3-.52-.65-.68-1.06-.16-.4-.25-.84-.25-1.32s.08-.91.25-1.31c.16-.41.39-.76.68-1.05.29-.3.64-.53,1.05-.7.41-.17.85-.26,1.34-.26s.93.08,1.34.26c.41.17.76.4,1.05.7.29.3.52.65.68,1.05s.25.84.25,1.31-.08.91-.25,1.32c-.17.41-.39.76-.68,1.06-.29.3-.64.53-1.05.7-.41.17-.85.26-1.34.26"/><polygon class="cls-3" points="71.51 18.41 69.1 14.78 70.21 14.78 71.94 17.56 73.73 14.78 74.78 14.78 72.37 18.41 72.37 21.11 71.51 21.11 71.51 18.41"/><path class="cls-3" d="M77.51,14.78v3.88c0,.2.03.4.08.61.05.21.14.41.27.59.13.18.29.33.49.44.2.11.45.17.75.17s.55-.06.75-.17c.2-.11.37-.26.49-.44.12-.18.21-.37.27-.59.05-.21.08-.41.08-.61v-3.88h.86v4.02c0,.37-.06.71-.19,1.01-.12.3-.3.56-.52.78-.22.22-.48.39-.78.51-.3.12-.62.18-.97.18s-.67-.06-.97-.18c-.3-.12-.56-.29-.78-.51-.22-.22-.4-.48-.52-.78-.12-.3-.19-.64-.19-1.01v-4.02h.86Z"/><path class="cls-3" d="M87.88,18.79l-1.18-2.91h-.02l-1.2,2.91h2.41ZM86.33,14.78h.78l2.72,6.33h-1.01l-.64-1.57h-3.03l-.63,1.57h-1.01l2.8-6.33Z"/><polygon class="cls-3" points="91.92 14.78 93.05 14.78 96.55 19.98 96.57 19.98 96.57 14.78 97.43 14.78 97.43 21.11 96.34 21.11 92.8 15.9 92.78 15.9 92.78 21.11 91.92 21.11 91.92 14.78"/><path class="cls-3" d="M48.27,27.54h.86v5.29c0,.13.11.24.24.24h2.68v.8h-3.07c-.39,0-.71-.32-.71-.71v-5.62Z"/><rect class="cls-3" x="54.19" y="27.54" width=".86" height="6.33"/><polygon class="cls-3" points="59.27 28.34 57.22 28.34 57.22 27.54 62.18 27.54 62.18 28.34 60.13 28.34 60.13 33.87 59.27 33.87 59.27 28.34"/><path class="cls-3" d="M81.38,31.56l-1.18-2.91h-.02l-1.2,2.91h2.41ZM79.83,27.54h.78l2.72,6.33h-1.01l-.64-1.57h-3.03l-.63,1.57h-1l2.8-6.33Z"/><polygon class="cls-3" points="85.92 28.34 83.87 28.34 83.87 27.54 88.83 27.54 88.83 28.34 86.78 28.34 86.78 33.87 85.92 33.87 85.92 28.34"/><path class="cls-3" d="M91.75,27.54v3.88c0,.2.03.4.08.61.05.21.14.41.27.59.13.18.29.33.49.44s.45.17.75.17.55-.06.76-.17.37-.26.49-.44c.12-.18.21-.37.27-.59.05-.21.08-.42.08-.61v-3.88h.86v4.02c0,.37-.06.71-.19,1.01-.12.3-.3.56-.52.78-.22.22-.48.39-.78.51-.3.12-.62.18-.97.18s-.67-.06-.97-.18c-.3-.12-.56-.29-.78-.51-.22-.22-.4-.48-.52-.78-.12-.3-.19-.64-.19-1.01v-4.02h.86Z"/><path class="cls-3" d="M65.45,33.07c-.13,0-.24-.11-.24-.24v-1.79h3.02v-.81h-3.02v-1.65c0-.13.11-.24.24-.24h3v-.81h-3.39c-.39,0-.71.32-.71.71v4.92c0,.39.32.71.71.71h3.55v-.81h-3.17Z"/><path class="cls-3" d="M106.42,33.07c-.13,0-.24-.11-.24-.24v-1.79h3.02v-.81h-3.02v-1.65c0-.13.11-.24.24-.24h3v-.81h-3.39c-.39,0-.71.32-.71.71v4.92c0,.39.32.71.71.71h3.55v-.81h-3.16Z"/><path class="cls-3" d="M73.09,30.33h-1.12v-1.92c0-.07.05-.12.12-.12h1.01c.17,0,.33.02.5.03.17.03.32.08.43.15.13.07.23.18.32.32.07.13.12.3.12.52s-.05.38-.12.52c-.08.13-.18.25-.32.32-.12.07-.27.12-.43.15-.17.02-.33.03-.5.03M73.81,30.98c.23-.02.45-.08.65-.18.2-.12.35-.23.49-.38.13-.15.25-.33.32-.52.07-.18.1-.38.1-.58s-.02-.4-.08-.62c-.05-.2-.17-.4-.32-.57-.15-.17-.35-.32-.62-.42-.27-.12-.6-.17-1-.17h-1.66c-.33.07-.59.35-.59.7v5.62h.87v-2.79h.95l1.62,2.79h1.07l-1.81-2.89Z"/><path class="cls-3" d="M100.57,30.33h-1.12v-1.92c0-.07.05-.12.12-.12h1c.17,0,.34.02.5.03.17.03.32.08.43.15.13.07.23.18.32.32.07.13.12.3.12.52s-.05.38-.12.52c-.08.13-.18.25-.32.32-.12.07-.27.12-.43.15-.17.02-.33.03-.5.03M101.29,30.98c.23-.02.45-.08.65-.18.2-.12.35-.23.49-.38.13-.15.25-.33.32-.52.07-.18.1-.38.1-.58s-.02-.4-.08-.62c-.05-.2-.17-.4-.32-.57-.15-.17-.35-.32-.62-.42-.27-.12-.6-.17-1-.17h-1.66c-.33.07-.59.35-.59.7v5.62h.87v-2.79h.95l1.62,2.79h1.07l-1.81-2.89Z"/><polygon class="cls-3" points="48.27 40.46 49.56 40.46 51.58 45.26 51.61 45.26 53.61 40.46 54.9 40.46 54.9 46.8 54.04 46.8 54.04 41.59 54.02 41.59 51.87 46.8 51.3 46.8 49.15 41.59 49.13 41.59 49.13 46.8 48.27 46.8 48.27 40.46"/><path class="cls-3" d="M58.69,40.46v3.88c0,.2.03.4.08.61.05.21.15.41.27.59.13.18.29.33.49.44.2.11.45.17.75.17s.55-.06.76-.17c.2-.11.37-.26.49-.44.12-.18.21-.37.27-.59.05-.21.08-.41.08-.61v-3.88h.86v4.02c0,.37-.06.71-.19,1.01-.12.3-.3.56-.52.78-.22.22-.48.39-.78.51-.3.12-.62.18-.97.18s-.67-.06-.97-.18c-.3-.12-.56-.29-.78-.51-.22-.22-.4-.48-.52-.78-.12-.3-.19-.64-.19-1.01v-4.02h.86Z"/><path class="cls-3" d="M65.92,45.48c.16.23.36.4.6.51.24.11.49.17.75.17.14,0,.29-.02.44-.07.15-.04.29-.11.41-.2.12-.09.22-.2.3-.33.08-.13.12-.28.12-.46,0-.24-.08-.43-.23-.56-.16-.13-.35-.23-.58-.32-.23-.09-.48-.17-.76-.25s-.52-.19-.75-.34c-.23-.14-.42-.33-.58-.58-.16-.24-.23-.57-.23-.98,0-.18.04-.38.12-.59.08-.21.21-.4.38-.57.17-.17.4-.32.67-.43.27-.12.6-.17.98-.17.35,0,.68.05,1,.14.32.1.6.29.84.58l-.7.63c-.11-.17-.26-.3-.46-.4-.2-.1-.42-.15-.67-.15s-.44.03-.6.09c-.16.06-.29.14-.38.24-.1.1-.16.2-.2.32-.04.11-.06.22-.06.31,0,.27.08.48.23.62.16.14.35.26.58.35.23.09.48.17.75.24.27.07.52.17.76.3.23.13.42.3.58.52.15.22.23.52.23.9,0,.3-.06.58-.17.82-.12.24-.27.45-.47.62s-.43.3-.7.38c-.27.09-.56.14-.86.14-.41,0-.79-.07-1.16-.22-.36-.14-.65-.36-.87-.66l.71-.61Z"/><path class="cls-3" d="M79.91,40.46v3.88c0,.2.03.4.08.61.05.21.14.41.27.59.13.18.29.33.49.44.2.11.45.17.75.17s.55-.06.76-.17c.2-.11.37-.26.49-.44.12-.18.21-.37.27-.59.05-.21.08-.41.08-.61v-3.88h.86v4.02c0,.37-.06.71-.19,1.01-.12.3-.3.56-.52.78-.22.22-.48.39-.78.51-.3.12-.62.18-.97.18s-.67-.06-.97-.18c-.3-.12-.56-.29-.78-.51-.22-.22-.4-.48-.52-.78-.12-.3-.19-.64-.19-1.01v-4.02h.86Z"/><polygon class="cls-3" points="86.89 40.46 88.18 40.46 90.19 45.26 90.23 45.26 92.23 40.46 93.52 40.46 93.52 46.8 92.66 46.8 92.66 41.59 92.64 41.59 90.49 46.8 89.92 46.8 87.77 41.59 87.75 41.59 87.75 46.8 86.89 46.8 86.89 40.46"/><path class="cls-3" d="M73.3,45.99c-.13,0-.24-.11-.24-.24v-1.79h3.02v-.81h-3.02v-1.65c0-.13.11-.24.24-.24h3v-.81h-3.39c-.39,0-.71.32-.71.71v4.92c0,.39.32.71.71.71h3.55v-.81h-3.17Z"/><path class="cls-3" d="M48.51,40.58c0,.07-.05.12-.12.12s-.12-.05-.12-.12.05-.12.12-.12.12.05.12.12"/><path class="cls-3" d="M49.59,40.58c0,.07-.05.12-.12.12s-.12-.05-.12-.12.05-.12.12-.12.12.05.12.12"/></svg>